<mxfile host="app.diagrams.net" modified="2023-08-25T14:35:00.332Z" agent="Mozilla/5.0 (X11; Linux x86_64; rv:109.0) Gecko/20100101 Firefox/112.0" etag="522-UHe4fUeuWKhxbxN3" version="21.6.9" type="github">
  <diagram id="R2lEEEUBdFMjLlhIrx00" name="Page-1">
    <mxGraphModel dx="1434" dy="767" grid="1" gridSize="10" guides="1" tooltips="1" connect="1" arrows="1" fold="1" page="1" pageScale="1" pageWidth="850" pageHeight="1100" math="0" shadow="0" extFonts="Permanent Marker^https://fonts.googleapis.com/css?family=Permanent+Marker">
      <root>
        <mxCell id="0" />
        <mxCell id="1" parent="0" />
        <mxCell id="XEe2PH9txxTgVxD_qnh4-3" value="" style="edgeStyle=orthogonalEdgeStyle;rounded=0;orthogonalLoop=1;jettySize=auto;html=1;" edge="1" parent="1" source="XEe2PH9txxTgVxD_qnh4-1" target="XEe2PH9txxTgVxD_qnh4-2">
          <mxGeometry relative="1" as="geometry" />
        </mxCell>
        <mxCell id="XEe2PH9txxTgVxD_qnh4-1" value="DEPARTAMENTO" style="rounded=0;whiteSpace=wrap;html=1;" vertex="1" parent="1">
          <mxGeometry x="10" y="40" width="120" height="30" as="geometry" />
        </mxCell>
        <mxCell id="XEe2PH9txxTgVxD_qnh4-6" value="" style="edgeStyle=orthogonalEdgeStyle;rounded=0;orthogonalLoop=1;jettySize=auto;html=1;" edge="1" parent="1" source="XEe2PH9txxTgVxD_qnh4-2" target="XEe2PH9txxTgVxD_qnh4-5">
          <mxGeometry relative="1" as="geometry" />
        </mxCell>
        <mxCell id="XEe2PH9txxTgVxD_qnh4-2" value="ALOCAR" style="rhombus;whiteSpace=wrap;html=1;rounded=0;" vertex="1" parent="1">
          <mxGeometry x="230" y="15" width="80" height="80" as="geometry" />
        </mxCell>
        <mxCell id="XEe2PH9txxTgVxD_qnh4-4" value="1" style="text;html=1;align=center;verticalAlign=middle;resizable=0;points=[];autosize=1;strokeColor=none;fillColor=none;" vertex="1" parent="1">
          <mxGeometry x="155" y="28" width="30" height="30" as="geometry" />
        </mxCell>
        <mxCell id="XEe2PH9txxTgVxD_qnh4-9" value="" style="edgeStyle=orthogonalEdgeStyle;rounded=0;orthogonalLoop=1;jettySize=auto;html=1;" edge="1" parent="1" source="XEe2PH9txxTgVxD_qnh4-5" target="XEe2PH9txxTgVxD_qnh4-8">
          <mxGeometry relative="1" as="geometry" />
        </mxCell>
        <mxCell id="XEe2PH9txxTgVxD_qnh4-5" value="FUNCIONÁRIO" style="whiteSpace=wrap;html=1;rounded=0;" vertex="1" parent="1">
          <mxGeometry x="370" y="40" width="120" height="30" as="geometry" />
        </mxCell>
        <mxCell id="XEe2PH9txxTgVxD_qnh4-7" value="N" style="text;html=1;align=center;verticalAlign=middle;resizable=0;points=[];autosize=1;strokeColor=none;fillColor=none;" vertex="1" parent="1">
          <mxGeometry x="325" y="28" width="30" height="30" as="geometry" />
        </mxCell>
        <mxCell id="XEe2PH9txxTgVxD_qnh4-12" value="" style="edgeStyle=orthogonalEdgeStyle;rounded=0;orthogonalLoop=1;jettySize=auto;html=1;" edge="1" parent="1" source="XEe2PH9txxTgVxD_qnh4-8" target="XEe2PH9txxTgVxD_qnh4-11">
          <mxGeometry relative="1" as="geometry" />
        </mxCell>
        <mxCell id="XEe2PH9txxTgVxD_qnh4-8" value="PERTENCER" style="rhombus;whiteSpace=wrap;html=1;rounded=0;" vertex="1" parent="1">
          <mxGeometry x="385" y="120" width="90" height="85" as="geometry" />
        </mxCell>
        <mxCell id="XEe2PH9txxTgVxD_qnh4-10" value="1" style="text;html=1;align=center;verticalAlign=middle;resizable=0;points=[];autosize=1;strokeColor=none;fillColor=none;" vertex="1" parent="1">
          <mxGeometry x="405" y="78" width="30" height="30" as="geometry" />
        </mxCell>
        <mxCell id="XEe2PH9txxTgVxD_qnh4-15" value="" style="edgeStyle=orthogonalEdgeStyle;rounded=0;orthogonalLoop=1;jettySize=auto;html=1;" edge="1" parent="1" source="XEe2PH9txxTgVxD_qnh4-11" target="XEe2PH9txxTgVxD_qnh4-14">
          <mxGeometry relative="1" as="geometry" />
        </mxCell>
        <mxCell id="XEe2PH9txxTgVxD_qnh4-11" value="PROJETO" style="whiteSpace=wrap;html=1;rounded=0;" vertex="1" parent="1">
          <mxGeometry x="370" y="297.5" width="120" height="60" as="geometry" />
        </mxCell>
        <mxCell id="XEe2PH9txxTgVxD_qnh4-13" value="N" style="text;html=1;align=center;verticalAlign=middle;resizable=0;points=[];autosize=1;strokeColor=none;fillColor=none;" vertex="1" parent="1">
          <mxGeometry x="425" y="238" width="30" height="30" as="geometry" />
        </mxCell>
        <mxCell id="XEe2PH9txxTgVxD_qnh4-17" style="edgeStyle=orthogonalEdgeStyle;rounded=0;orthogonalLoop=1;jettySize=auto;html=1;exitX=0.5;exitY=1;exitDx=0;exitDy=0;entryX=0.5;entryY=0;entryDx=0;entryDy=0;" edge="1" parent="1" source="XEe2PH9txxTgVxD_qnh4-14" target="XEe2PH9txxTgVxD_qnh4-16">
          <mxGeometry relative="1" as="geometry" />
        </mxCell>
        <mxCell id="XEe2PH9txxTgVxD_qnh4-14" value="ULTILIZAR" style="rhombus;whiteSpace=wrap;html=1;rounded=0;" vertex="1" parent="1">
          <mxGeometry x="390" y="427.5" width="80" height="80" as="geometry" />
        </mxCell>
        <mxCell id="XEe2PH9txxTgVxD_qnh4-19" value="" style="edgeStyle=orthogonalEdgeStyle;rounded=0;orthogonalLoop=1;jettySize=auto;html=1;" edge="1" parent="1" source="XEe2PH9txxTgVxD_qnh4-16" target="XEe2PH9txxTgVxD_qnh4-18">
          <mxGeometry relative="1" as="geometry" />
        </mxCell>
        <mxCell id="XEe2PH9txxTgVxD_qnh4-28" style="edgeStyle=orthogonalEdgeStyle;rounded=0;orthogonalLoop=1;jettySize=auto;html=1;exitX=0;exitY=0;exitDx=0;exitDy=0;entryX=0.406;entryY=1.1;entryDx=0;entryDy=0;entryPerimeter=0;" edge="1" parent="1" source="XEe2PH9txxTgVxD_qnh4-16" target="XEe2PH9txxTgVxD_qnh4-26">
          <mxGeometry relative="1" as="geometry" />
        </mxCell>
        <mxCell id="XEe2PH9txxTgVxD_qnh4-16" value="PEÇAS" style="rounded=0;whiteSpace=wrap;html=1;" vertex="1" parent="1">
          <mxGeometry x="370" y="530" width="120" height="60" as="geometry" />
        </mxCell>
        <mxCell id="XEe2PH9txxTgVxD_qnh4-21" value="" style="edgeStyle=orthogonalEdgeStyle;rounded=0;orthogonalLoop=1;jettySize=auto;html=1;" edge="1" parent="1" source="XEe2PH9txxTgVxD_qnh4-18" target="XEe2PH9txxTgVxD_qnh4-20">
          <mxGeometry relative="1" as="geometry" />
        </mxCell>
        <mxCell id="XEe2PH9txxTgVxD_qnh4-18" value="CONTER" style="rhombus;whiteSpace=wrap;html=1;rounded=0;" vertex="1" parent="1">
          <mxGeometry x="245" y="520" width="80" height="80" as="geometry" />
        </mxCell>
        <mxCell id="XEe2PH9txxTgVxD_qnh4-20" value="DEPOSITO" style="whiteSpace=wrap;html=1;rounded=0;" vertex="1" parent="1">
          <mxGeometry x="65" y="530" width="120" height="60" as="geometry" />
        </mxCell>
        <mxCell id="XEe2PH9txxTgVxD_qnh4-22" value="1" style="text;html=1;align=center;verticalAlign=middle;resizable=0;points=[];autosize=1;strokeColor=none;fillColor=none;" vertex="1" parent="1">
          <mxGeometry x="205" y="528" width="30" height="30" as="geometry" />
        </mxCell>
        <mxCell id="XEe2PH9txxTgVxD_qnh4-23" value="1" style="text;html=1;align=center;verticalAlign=middle;resizable=0;points=[];autosize=1;strokeColor=none;fillColor=none;" vertex="1" parent="1">
          <mxGeometry x="435" y="358" width="30" height="30" as="geometry" />
        </mxCell>
        <mxCell id="XEe2PH9txxTgVxD_qnh4-24" value="N" style="text;html=1;align=center;verticalAlign=middle;resizable=0;points=[];autosize=1;strokeColor=none;fillColor=none;" vertex="1" parent="1">
          <mxGeometry x="385" y="498" width="30" height="30" as="geometry" />
        </mxCell>
        <mxCell id="XEe2PH9txxTgVxD_qnh4-25" value="FORNECEDORES" style="swimlane;childLayout=stackLayout;horizontal=1;startSize=50;horizontalStack=0;rounded=1;fontSize=14;fontStyle=0;strokeWidth=2;resizeParent=0;resizeLast=1;shadow=0;dashed=0;align=center;arcSize=4;whiteSpace=wrap;html=1;" vertex="1" parent="1">
          <mxGeometry x="25" y="190" width="160" height="70" as="geometry" />
        </mxCell>
        <mxCell id="XEe2PH9txxTgVxD_qnh4-26" value="DATA DE INICIO" style="align=left;strokeColor=none;fillColor=none;spacingLeft=4;fontSize=12;verticalAlign=top;resizable=0;rotatable=0;part=1;html=1;" vertex="1" parent="XEe2PH9txxTgVxD_qnh4-25">
          <mxGeometry y="50" width="160" height="20" as="geometry" />
        </mxCell>
      </root>
    </mxGraphModel>
  </diagram>
</mxfile>
